<?xml version="1.0" encoding="utf-8"?>
<!-- Generator: Adobe Illustrator 28.2.0, SVG Export Plug-In . SVG Version: 6.00 Build 0)  -->
<svg version="1.1" id="Layer_1" xmlns="http://www.w3.org/2000/svg" xmlns:xlink="http://www.w3.org/1999/xlink" x="0px" y="0px"
	 viewBox="0 0 468 144" style="enable-background:new 0 0 468 144;" xml:space="preserve">
<style type="text/css">
	.st0{fill:#0F2D52;}
	.st1{fill-rule:evenodd;clip-rule:evenodd;fill:#FAA21B;}
	.st2{fill:#006394;}
	.st3{fill:url(#SVGID_1_);}
	.st4{fill:#75BC43;}
	.st5{fill:#009BA6;}
	.st6{fill:#007378;}
</style>
<g>
	<g>
		<path class="st0" d="M30.8,120.9c-0.7,0-1.2,0-1.8,0l-0.1-0.1c-0.3-1.2-0.6-2.1-0.9-3.3c-0.7,0-1.3,0-2,0c-0.6,0-1.3,0-2,0
			c-0.4,1.2-0.6,2-0.9,3.3l-0.1,0.1c-0.6,0-1,0-1.6,0l-0.1-0.1c1.8-5.1,3.3-9.4,3.6-10.6l0.1-0.4l0.1-0.1c0.8,0,1.4,0,2.3,0l0.1,0.1
			l0.1,0.3c1.2,4,2.1,6.7,3.4,10.7L30.8,120.9z M26,110.9l-1.7,5.3c0.1,0,1.1,0,1.6,0c0.5,0,1.4,0,1.6,0L26,110.9z"/>
		<path class="st0" d="M36.9,120.8c0-1.1,0-1.9,0-3v-1.5c0-1-0.1-2.5-1.5-2.5c-1,0-1.8,0.6-2.1,0.9v1c0,1.8,0,3.1,0.1,5l-0.1,0.1
			c-0.6,0-1,0-1.7,0.1l-0.1-0.1c0-1.1,0-1.8,0-2.9c0-1.8,0-3.1-0.2-4.9l0.1-0.1c0.6-0.1,1.1-0.2,1.7-0.3l0.1,0.1c0,0.3,0,0.8,0,0.8
			c0.5-0.3,1.5-1,2.8-1c1.4,0,2.1,0.8,2.3,1.6c0.1,0.4,0.2,1.1,0.2,1.7v1.8c0,1.2,0,2,0.1,3.2l-0.1,0.1c-0.6,0-1,0-1.6,0.1
			L36.9,120.8z"/>
		<path class="st0" d="M44,120.8c-0.3,0.1-0.6,0.1-1.2,0.1c-1.8,0-2.2-0.9-2.2-2.3c0-0.6,0-2.1,0-4.7c-0.3,0-0.7,0-1.1,0l-0.1-0.1
			c0-0.4,0-0.7,0-1.1l0.1-0.1c0.1,0,0.4,0,0.6,0c0.2,0,0.4,0,0.5,0c0-0.7,0-1.2-0.1-1.9l0.1-0.1c0.6-0.1,1-0.3,1.6-0.4l0.1,0.1
			c0,0.9-0.1,1.5-0.1,2.4c0.6,0,1.3,0,1.8,0l0.1,0.1c0,0.4,0,0.7,0,1.1l-0.1,0.1c-0.6,0-1.1,0-1.7,0c0,0,0,3.1,0,3.4
			c0,1.9,0,2.4,0.9,2.4c0.3,0,0.7-0.1,0.8-0.1l0.1,0.1C44.1,120,44.1,120.3,44,120.8L44,120.8z"/>
		<path class="st0" d="M51.5,120.5c-0.5,0.3-1.3,0.6-2.5,0.6c-2.8,0-4.2-1.6-4.2-4.2c0-3.4,2.2-4.4,3.8-4.4c0.2,0,1.2,0,2,0.6
			c1.3,0.9,1.5,2.5,1.5,3.5v0.4l-0.1,0.1c-0.6,0-2,0-3,0c-0.8,0-1.7,0-2.5,0c0,2.3,1.6,2.8,2.6,2.8c1.2,0,2-0.5,2.5-0.9l0.1,0.1
			c-0.1,0.5-0.1,0.9-0.1,1.4L51.5,120.5z M48,115.8c0.9,0,1.9,0,2.4,0c0-1-0.5-2.2-1.9-2.2c-1.2,0-2,1.1-2.1,2.2H48z"/>
		<path class="st0" d="M58.7,120.8c0-1.1,0-1.9,0-3v-1.5c0-1-0.1-2.5-1.5-2.5c-1,0-1.8,0.6-2.1,0.9v1c0,1.8,0,3.1,0.1,5l-0.1,0.1
			c-0.6,0-1,0-1.7,0.1l-0.1-0.1c0-1.1,0-1.8,0-2.9c0-1.8,0-3.1-0.2-4.9l0.1-0.1c0.6-0.1,1.1-0.2,1.7-0.3l0.1,0.1c0,0.3,0,0.8,0,0.8
			c0.5-0.3,1.5-1,2.8-1c1.4,0,2.1,0.8,2.3,1.6c0.1,0.4,0.2,1.1,0.2,1.7v1.8c0,1.2,0,2,0.1,3.2l-0.1,0.1c-0.6,0-1,0-1.6,0.1
			L58.7,120.8z"/>
		<path class="st0" d="M67.6,120.8c0-1.1,0-1.9,0-3v-1.5c0-1-0.1-2.5-1.5-2.5c-1,0-1.8,0.6-2.1,0.9v1c0,1.8,0,3.1,0.1,5l-0.1,0.1
			c-0.6,0-1,0-1.7,0.1l-0.1-0.1c0-1.1,0-1.8,0-2.9c0-1.8,0-3.1-0.2-4.9l0.1-0.1c0.6-0.1,1.1-0.2,1.7-0.3l0.1,0.1c0,0.3,0,0.8,0,0.8
			c0.5-0.3,1.5-1,2.8-1c1.4,0,2.1,0.8,2.3,1.6c0.1,0.4,0.2,1.1,0.2,1.7v1.8c0,1.2,0,2,0.1,3.2l-0.1,0.1c-0.6,0-1,0-1.6,0.1
			L67.6,120.8z"/>
		<path class="st0" d="M77.2,120.9c-0.6,0-1,0-1.6,0.1l-0.1-0.1v-0.6c-0.4,0.4-1.1,0.8-2.1,0.8c-1.6,0-2.8-1-2.8-2.7
			c0-2.6,2.9-2.9,4.6-3.1l0.3,0c0-0.6,0-1.6-1.5-1.6c-1.1,0-1.9,0.4-2.4,0.6l-0.1-0.1c0-0.8,0-1,0-1.2l0.1-0.1
			c0.8-0.3,1.9-0.5,2.7-0.5c1.2,0,2.8,0.4,2.8,2.5v2.7C77.2,118.8,77.2,119.6,77.2,120.9L77.2,120.9z M75.6,116.4l-0.1,0
			c-1.7,0.2-3.1,0.6-3.1,1.8c0,0.4,0.2,1.5,1.5,1.5c0.6,0,1.2-0.2,1.8-0.7V116.4z"/>
		<path class="st0" d="M78.6,120.4c0.1-0.5,0.1-0.8,0.1-1.3l0.1,0c0.4,0.3,1.2,0.8,2.2,0.8c1.1,0,1.7-0.6,1.7-1.2
			c0-0.8-0.8-1-1.5-1.2l-0.7-0.2c-0.7-0.2-2-0.7-2-2.3c0-1.3,1-2.4,3.2-2.4c1.1,0,1.8,0.3,2.3,0.5l0.1,0.1c0,0.5-0.1,0.8-0.1,1.2
			l-0.1,0.1c-0.7-0.5-1.3-0.6-2.1-0.6c-0.9,0-1.5,0.4-1.5,1c0,0.8,1.1,1,1.6,1.2l0.6,0.2c0.5,0.2,2.1,0.7,2.1,2.3
			c0,1.6-1.4,2.7-3.4,2.7c-1.3,0-1.9-0.3-2.5-0.5L78.6,120.4z"/>
		<path class="st0" d="M96,120.9c-0.6,0-1,0-1.6,0.1l-0.1-0.1v-0.6c-0.4,0.4-1.1,0.8-2.1,0.8c-1.6,0-2.8-1-2.8-2.7
			c0-2.6,2.9-2.9,4.6-3.1l0.3,0c0-0.6,0-1.6-1.5-1.6c-1.1,0-1.9,0.4-2.4,0.6l-0.1-0.1c0-0.8,0-1,0-1.2l0.1-0.1
			c0.8-0.3,1.9-0.5,2.7-0.5c1.2,0,2.8,0.4,2.8,2.5v2.7C96,118.8,96,119.6,96,120.9L96,120.9z M94.4,116.4l-0.1,0
			c-1.7,0.2-3.1,0.6-3.1,1.8c0,0.4,0.2,1.5,1.5,1.5c0.6,0,1.2-0.2,1.8-0.7V116.4z"/>
		<path class="st0" d="M103.2,120.8c0-1.1,0-1.9,0-3v-1.5c0-1-0.1-2.5-1.5-2.5c-1,0-1.8,0.6-2.1,0.9v1c0,1.8,0,3.1,0.1,5l-0.1,0.1
			c-0.6,0-1,0-1.7,0.1l-0.1-0.1c0-1.1,0-1.8,0-2.9c0-1.8,0-3.1-0.2-4.9l0.1-0.1c0.6-0.1,1.1-0.2,1.7-0.3l0.1,0.1c0,0.3,0,0.8,0,0.8
			c0.5-0.3,1.5-1,2.8-1c1.4,0,2.1,0.8,2.3,1.6c0.1,0.4,0.2,1.1,0.2,1.7v1.8c0,1.2,0,2,0.1,3.2l-0.1,0.1c-0.6,0-1,0-1.6,0.1
			L103.2,120.8z"/>
		<path class="st0" d="M112.1,120.8l0-0.6c-0.5,0.4-1.1,0.8-2.2,0.8c-0.6,0-1.4-0.2-2.1-0.7c-1.2-0.9-1.4-2.3-1.4-3.3
			c0-2.1,1.1-4.5,4.9-4.5c0.3,0,0.6,0,0.9,0v-0.4c0-1.2,0-2.1-0.1-3.4l0.1-0.1c0.6-0.1,1.1-0.2,1.7-0.3l0.1,0.1
			c-0.1,2.8-0.1,4.8-0.1,7.6c0,1.8,0,3,0.1,4.8l-0.1,0.1c-0.6,0-1,0-1.6,0.1L112.1,120.8z M112.1,116.1c0-0.7,0-1.8,0-2.2
			c-0.3,0-0.5,0-0.8,0c-2.9,0-3.2,2.1-3.2,3.2c0,2,1.2,2.7,2.2,2.7c0.8,0,1.4-0.4,1.7-0.7c0-0.5,0-1.5,0-2.3V116.1z"/>
		<path class="st0" d="M121.9,120.9c-0.6,0-1.1,0-1.7,0l-0.1-0.1c0-1.7,0-2.9,0-4.9c0-2.1,0-3.8-0.1-6.1l0.1-0.1h0.4
			c0.3,0,2.4-0.1,2.8-0.1c1,0,2.1,0,3,0.7c0.6,0.4,0.8,0.8,0.9,1c0.4,0.7,0.4,1.5,0.4,1.7c0,0.2,0,1.2-0.7,2.1
			c-0.9,1.1-2.2,1.5-4.3,1.5c-0.3,0-0.5,0-0.7,0c0,1.5,0.1,2.6,0.1,4.1L121.9,120.9z M122.3,115.4c1.6,0,2.5-0.1,3.1-0.9
			c0.3-0.3,0.5-0.7,0.5-1.4c0-2-1.6-2.1-2.3-2.1c-1,0-1.2,0-1.7,0c0,0.7,0,1.5,0,2.2c0,0.7,0,1.4,0,2.1H122.3z"/>
		<path class="st0" d="M130.6,120.9c-0.6,0-1.1,0-1.7,0.1l-0.1-0.1v-0.7c0-0.2,0-2.5,0-3.1c0-1.2,0-2.9-0.1-4.1l0.1-0.1
			c0.6-0.1,1-0.2,1.6-0.3l0.1,0.1l-0.1,1.3c0.2-0.5,0.6-1.5,1.9-1.5c0.3,0,0.4,0,0.5,0l0.1,0.1c-0.1,0.6-0.2,1-0.3,1.6l-0.1,0.1
			c-0.3-0.1-0.5-0.1-0.6-0.1c-0.4,0-1.3,0.3-1.3,1.8v1.2C130.6,118.5,130.6,119.4,130.6,120.9L130.6,120.9z"/>
		<path class="st0" d="M137.3,121.1c-1.7,0-3.9-0.8-3.9-4.3c0-3.6,2.4-4.3,4-4.3c1.6,0,3.8,0.7,3.8,4.3
			C141.2,120.3,139,121.1,137.3,121.1z M137.4,113.7c-1.6,0-2.2,1.3-2.2,3.1c0,2.4,1,3.1,2.2,3.1c1.6,0,2.2-1.1,2.2-3.1
			C139.5,115.8,139.4,113.7,137.4,113.7z"/>
		<path class="st0" d="M144.5,124.7c-0.5,0-1,0-1.7,0l-0.1-0.1c0.1-1.3,0.1-2.2,0.1-3.6c0-1.4,0-3.6,0-4.1c0-1.5,0-2.5-0.2-4
			l0.1-0.1c0.6-0.1,1.1-0.2,1.7-0.3l0.1,0.1l0,0.7c0.5-0.3,1.2-0.9,2.3-0.9c2.2,0,3.4,1.9,3.4,3.8c0,1.2-0.3,2.1-0.7,2.6
			c-1.1,1.7-2.9,2.1-4.3,2.1c-0.3,0-0.5,0-0.7,0C144.5,122.3,144.5,123.2,144.5,124.7L144.5,124.7z M145.1,119.7
			c2.1,0,3.3-1.3,3.3-3.3c0-1.9-1.2-2.6-2.2-2.6c-0.9,0-1.5,0.4-1.8,0.7c0,0.5,0,1.7,0,2.5c0,0.9,0,1.8,0,2.7
			C144.7,119.7,144.9,119.7,145.1,119.7z"/>
		<path class="st0" d="M157.7,120.9c-0.6,0-1,0-1.6,0.1l-0.1-0.1v-0.6c-0.4,0.4-1.1,0.8-2.1,0.8c-1.6,0-2.8-1-2.8-2.7
			c0-2.6,2.9-2.9,4.6-3.1l0.3,0c0-0.6,0-1.6-1.5-1.6c-1.1,0-1.9,0.4-2.4,0.6l-0.1-0.1c0-0.8,0-1,0-1.2l0.1-0.1
			c0.8-0.3,1.9-0.5,2.7-0.5c1.2,0,2.8,0.4,2.8,2.5v2.7C157.7,118.8,157.7,119.6,157.7,120.9L157.7,120.9z M156,116.4l-0.1,0
			c-1.7,0.2-3.1,0.6-3.1,1.8c0,0.4,0.2,1.5,1.5,1.5c0.6,0,1.2-0.2,1.8-0.7V116.4z"/>
		<path class="st0" d="M159.6,119.5c0.4-0.6,0.7-1,1.1-1.6c-1.2-0.5-1.5-1.5-1.5-2.4c0-0.9,0.3-1.5,0.6-1.8c0.8-1,2-1.1,2.9-1.1
			c0.3,0,0.8,0,1.3,0c1.5,0,1.9,0,2.4,0l0.1,0.1c0,0.4,0,0.6-0.1,1l-0.1,0.1l-1.3-0.1c0.3,0.3,0.7,0.9,0.7,1.8
			c0,1.5-1.1,2.8-3.1,2.8c-0.3,0-0.4,0-0.7,0l-0.5,0.7c1.9,0.6,3.1,0.6,3.9,1.2c0.9,0.7,0.9,1.6,0.9,1.8c0,1.4-1.1,2.9-3.6,2.9
			c-2.4,0-3.6-1.1-3.6-2.5c0-1.2,0.8-1.8,1.4-2.3c-0.2-0.1-0.5-0.2-0.7-0.3L159.6,119.5z M161.4,120.5c-0.3,0.4-0.9,0.8-0.9,1.7
			c0,0.8,0.6,1.6,2.1,1.6c1.3,0,1.9-0.7,1.9-1.4c0-1-1-1.3-1.7-1.5L161.4,120.5z M162.5,113.7c-1.1,0-1.7,0.8-1.7,1.8
			c0,0.5,0.2,1.8,1.7,1.8c1.5,0,1.6-1.4,1.6-1.8C164.1,114.6,163.6,113.7,162.5,113.7z"/>
		<path class="st0" d="M173.5,120.9c-0.6,0-1,0-1.6,0.1l-0.1-0.1v-0.6c-0.4,0.4-1.1,0.8-2.1,0.8c-1.6,0-2.8-1-2.8-2.7
			c0-2.6,2.9-2.9,4.6-3.1l0.3,0c0-0.6,0-1.6-1.5-1.6c-1.1,0-1.9,0.4-2.4,0.6l-0.1-0.1c0-0.8,0-1,0-1.2l0.1-0.1
			c0.8-0.3,1.9-0.5,2.7-0.5c1.2,0,2.8,0.4,2.8,2.5v2.7C173.5,118.8,173.5,119.6,173.5,120.9L173.5,120.9z M171.9,116.4l-0.1,0
			c-1.7,0.2-3.1,0.6-3.1,1.8c0,0.4,0.2,1.5,1.5,1.5c0.6,0,1.2-0.2,1.8-0.7V116.4z"/>
		<path class="st0" d="M178.8,120.8c-0.3,0.1-0.6,0.1-1.2,0.1c-1.8,0-2.2-0.9-2.2-2.3c0-0.6,0-2.1,0-4.7c-0.3,0-0.7,0-1.1,0
			l-0.1-0.1c0-0.4,0-0.7,0-1.1l0.1-0.1c0.1,0,0.4,0,0.6,0c0.2,0,0.4,0,0.5,0c0-0.7,0-1.2-0.1-1.9l0.1-0.1c0.6-0.1,1-0.3,1.6-0.4
			l0.1,0.1c0,0.9-0.1,1.5-0.1,2.4c0.6,0,1.3,0,1.8,0l0.1,0.1c0,0.4,0,0.7,0,1.1l-0.1,0.1c-0.6,0-1.1,0-1.7,0c0,0,0,3.1,0,3.4
			c0,1.9,0,2.4,0.9,2.4c0.3,0,0.7-0.1,0.8-0.1l0.1,0.1C178.9,120,178.9,120.3,178.8,120.8L178.8,120.8z"/>
		<path class="st0" d="M179.9,120.8c0.1-1.2,0.1-2.1,0.1-3.3c0-2.4,0-3.3-0.2-4.5l0.1-0.1c0.6-0.1,1.1-0.2,1.7-0.3l0.2,0.1
			c-0.1,1.4-0.1,2.3-0.1,3.7c0,1.6,0,2.8,0.1,4.4l-0.1,0.1c-0.6,0-1.1,0-1.7,0.1L179.9,120.8z M179.9,110.4c0-0.2,0-0.4,0-0.6
			c0-0.3,0-0.5,0-0.9l0.1-0.1c0.7,0,1.1-0.1,1.8-0.2l0.1,0.1c0,0.2,0,0.5,0,0.7c0,0.3,0,0.5,0,0.8l-0.1,0.1
			C181.1,110.4,180.6,110.4,179.9,110.4L179.9,110.4z"/>
		<path class="st0" d="M187.1,121.1c-1.7,0-3.9-0.8-3.9-4.3c0-3.6,2.4-4.3,4-4.3c1.6,0,3.8,0.7,3.8,4.3
			C191,120.3,188.8,121.1,187.1,121.1z M187.2,113.7c-1.6,0-2.2,1.3-2.2,3.1c0,2.4,1,3.1,2.2,3.1c1.6,0,2.2-1.1,2.2-3.1
			C189.3,115.8,189.2,113.7,187.2,113.7z"/>
		<path class="st0" d="M197.8,120.8c0-1.1,0-1.9,0-3v-1.5c0-1-0.1-2.5-1.5-2.5c-1,0-1.8,0.6-2.1,0.9v1c0,1.8,0,3.1,0.1,5l-0.1,0.1
			c-0.6,0-1,0-1.7,0.1l-0.1-0.1c0-1.1,0-1.8,0-2.9c0-1.8,0-3.1-0.2-4.9l0.1-0.1c0.6-0.1,1.1-0.2,1.7-0.3l0.1,0.1c0,0.3,0,0.8,0,0.8
			c0.5-0.3,1.5-1,2.8-1c1.4,0,2.1,0.8,2.3,1.6c0.1,0.4,0.2,1.1,0.2,1.7v1.8c0,1.2,0,2,0.1,3.2l-0.1,0.1c-0.6,0-1,0-1.6,0.1
			L197.8,120.8z"/>
		<path class="st0" d="M205.3,120.3c0-0.5,0.1-0.9,0.1-1.5l0.2-0.1c0.6,0.4,1.4,0.9,2.8,0.9c1.7,0,2.3-0.8,2.3-1.8
			c0-0.7-0.3-1.2-1.6-1.8l-1.1-0.5c-1.2-0.5-2.6-1.2-2.6-3.1c0-1.5,1.1-3.1,3.8-3.1c0.6,0,1.5,0,2.8,0.5l0.1,0.1
			c-0.1,0.5-0.1,0.9-0.1,1.4l-0.1,0.1c-0.9-0.5-1.6-0.7-2.6-0.7c-1.4,0-2.2,0.6-2.2,1.5c0,0.7,0.3,1.1,1.7,1.7l1.2,0.5
			c1.1,0.5,2.7,1.1,2.7,3.2c0,1.8-1.4,3.4-4.1,3.4c-1.4,0-2.5-0.4-3.1-0.7L205.3,120.3z"/>
		<path class="st0" d="M217.5,121.1c-1.7,0-3.9-0.8-3.9-4.3c0-3.6,2.4-4.3,4-4.3c1.6,0,3.8,0.7,3.8,4.3
			C221.4,120.3,219.1,121.1,217.5,121.1z M217.5,113.7c-1.6,0-2.2,1.3-2.2,3.1c0,2.4,1,3.1,2.2,3.1c1.6,0,2.2-1.1,2.2-3.1
			C219.7,115.8,219.5,113.7,217.5,113.7z"/>
		<path class="st0" d="M228.6,120.5c-0.4,0.2-1.1,0.6-2.2,0.6c-2.6,0-4-1.9-4-4.2c0-2.2,1.3-4.4,4-4.4c0.4,0,1.1,0,2.2,0.5l0.1,0.1
			c-0.1,0.5-0.1,0.8-0.1,1.2l-0.1,0.1c-0.8-0.5-1.4-0.6-1.7-0.6c-1.8,0-2.5,1.6-2.5,3c0,2.3,1.3,2.9,2.5,2.9c1,0,1.6-0.5,2-0.8
			l0.1,0.1C228.7,119.5,228.7,119.9,228.6,120.5L228.6,120.5z"/>
		<path class="st0" d="M229.7,120.8c0.1-1.2,0.1-2.1,0.1-3.3c0-2.4,0-3.3-0.2-4.5l0.1-0.1c0.6-0.1,1.1-0.2,1.7-0.3l0.2,0.1
			c-0.1,1.4-0.1,2.3-0.1,3.7c0,1.6,0,2.8,0.1,4.4l-0.1,0.1c-0.6,0-1.1,0-1.7,0.1L229.7,120.8z M229.7,110.4c0-0.2,0-0.4,0-0.6
			c0-0.3,0-0.5,0-0.9l0.1-0.1c0.7,0,1.1-0.1,1.8-0.2l0.1,0.1c0,0.2,0,0.5,0,0.7c0,0.3,0,0.5,0,0.8l-0.1,0.1
			C230.9,110.4,230.4,110.4,229.7,110.4L229.7,110.4z"/>
		<path class="st0" d="M239.8,120.5c-0.5,0.3-1.3,0.6-2.5,0.6c-2.8,0-4.2-1.6-4.2-4.2c0-3.4,2.2-4.4,3.8-4.4c0.2,0,1.2,0,2,0.6
			c1.3,0.9,1.5,2.5,1.5,3.5v0.4l-0.1,0.1c-0.6,0-2,0-3,0c-0.8,0-1.7,0-2.5,0c0,2.3,1.6,2.8,2.6,2.8c1.2,0,2-0.5,2.5-0.9l0.1,0.1
			c-0.1,0.5-0.1,0.9-0.1,1.4L239.8,120.5z M236.3,115.8c0.9,0,1.9,0,2.4,0c0-1-0.5-2.2-1.9-2.2c-1.2,0-2,1.1-2.1,2.2H236.3z"/>
		<path class="st0" d="M245.1,120.8c-0.3,0.1-0.6,0.1-1.2,0.1c-1.8,0-2.2-0.9-2.2-2.3c0-0.6,0-2.1,0-4.7c-0.3,0-0.7,0-1.1,0
			l-0.1-0.1c0-0.4,0-0.7,0-1.1l0.1-0.1c0.1,0,0.4,0,0.6,0c0.2,0,0.4,0,0.5,0c0-0.7,0-1.2-0.1-1.9l0.1-0.1c0.6-0.1,1-0.3,1.6-0.4
			l0.1,0.1c0,0.9-0.1,1.5-0.1,2.4c0.6,0,1.3,0,1.8,0l0.1,0.1c0,0.4,0,0.7,0,1.1l-0.1,0.1c-0.6,0-1.1,0-1.7,0c0,0,0,3.1,0,3.4
			c0,1.9,0,2.4,0.9,2.4c0.3,0,0.7-0.1,0.8-0.1l0.1,0.1C245.2,120,245.2,120.3,245.1,120.8L245.1,120.8z"/>
		<path class="st0" d="M248.3,124.7c-0.6,0-1,0-1.7,0l-0.1-0.1c0.6-1.2,1-2.3,1.6-3.6c-0.4-1.2-1.9-5.3-3-8.2l0-0.1
			c0.6,0,1.1-0.1,1.8-0.2l0.1,0.1c0.3,1.1,0.6,2,2,6.1c1.3-4,1.6-4.8,1.9-6.1l0.1-0.1h1.5l0,0.1c-0.9,2.2-3.1,7.8-4.1,11.9
			L248.3,124.7z"/>
	</g>
	<circle class="st1" cx="92.3" cy="26.3" r="6.1"/>
	<g>
		<path class="st2" d="M121.1,41.7h-2.6c-0.6,0-3.1,0.1-3.1,0.1l-0.2-0.2c0.1-3,0.2-5.9,0.2-8.8v-2.2c0-3.7,0-7.4-0.3-11.1l0.2-0.2
			h2.2c1.1,0,2.9-0.1,3.6-0.1l0.1,0.2c-0.1,4.4-0.2,8.7-0.2,13.1c0,3,0.1,6,0.2,9L121.1,41.7z"/>
		<path class="st2" d="M140.2,37.6c-0.1,1.3-0.2,2.7-0.2,3.9l-0.3,0.2c-4.6,0-9.3,0-14,0.1l-0.2-0.2c0.1-2.9,0.2-5.9,0.2-8.8v-6.6
			c0-2.3,0-4.5-0.2-6.7l0.2-0.2c3.5,0,11.9-0.1,14-0.1l0.2,0.2c-0.1,1.3-0.2,2.4-0.2,3.7l-0.2,0.2c-2.7-0.1-5.4-0.1-8.1-0.1
			c0,0.6,0,1.5,0,2.4c0,1,0,2,0,2.7c2.6,0,5.1,0,7.7-0.1l0.2,0.2c-0.1,1.2-0.2,2.4-0.2,3.6l-0.2,0.2c-4.7,0-7.4,0-7.4,0
			c0,1.9,0,3.7,0.1,5.6c2.9,0,5.8-0.1,8.7-0.2L140.2,37.6z"/>
		<path class="st2" d="M157.8,37.6c-0.1,1.3-0.2,2.7-0.2,3.9l-0.3,0.2c-4.6,0-9.3,0-14,0.1l-0.2-0.2c0.1-2.9,0.2-5.9,0.2-8.8v-6.6
			c0-2.3,0-4.5-0.2-6.7l0.2-0.2c3.5,0,11.9-0.1,14-0.1l0.2,0.2c-0.1,1.3-0.2,2.4-0.2,3.7l-0.2,0.2c-2.7-0.1-5.4-0.1-8.1-0.1
			c0,0.6,0,1.5,0,2.4c0,1,0,2,0,2.7c2.6,0,5.1,0,7.7-0.1l0.2,0.2c-0.1,1.2-0.2,2.4-0.2,3.6l-0.2,0.2c-4.7,0-7.4,0-7.4,0
			c0,1.9,0,3.7,0.1,5.6c2.9,0,5.8-0.1,8.7-0.2L157.8,37.6z"/>
		<path class="st2" d="M175.3,37.6c-0.1,1.3-0.2,2.7-0.2,3.9l-0.3,0.2c-4.6,0-9.3,0-14,0.1l-0.2-0.2c0.1-2.9,0.2-5.9,0.2-8.8v-6.6
			c0-2.3,0-4.5-0.2-6.7l0.2-0.2c3.5,0,11.9-0.1,14-0.1l0.2,0.2c-0.1,1.3-0.2,2.4-0.2,3.7l-0.2,0.2c-2.7-0.1-5.4-0.1-8.1-0.1
			c0,0.6,0,1.5,0,2.4c0,1,0,2,0,2.7c2.6,0,5.1,0,7.7-0.1l0.2,0.2c-0.1,1.2-0.2,2.4-0.2,3.6l-0.2,0.2c-4.7,0-7.4,0-7.4,0
			c0,1.9,0,3.7,0.1,5.6c2.9,0,5.8-0.1,8.7-0.2L175.3,37.6z"/>
	</g>
	
		<radialGradient id="SVGID_1_" cx="179.723" cy="55.6192" r="83.2212" gradientTransform="matrix(1 0 0 0.6551 0 19.1846)" gradientUnits="userSpaceOnUse">
		<stop  offset="0" style="stop-color:#009BA6"/>
		<stop  offset="0.1441" style="stop-color:#00949E"/>
		<stop  offset="0.6842" style="stop-color:#007C82"/>
		<stop  offset="1" style="stop-color:#007378"/>
	</radialGradient>
	<path class="st3" d="M113.9,96.2l-0.5,0.3H101l-0.3-0.5c4.9-15.6,9.9-31.3,14.7-46.9l0.4-0.3c5.7-0.1,12.6-0.2,17.2-0.2l0.5,0.3
		c4.6,15.7,9.2,31.3,13.7,47l-0.5,0.5h-7.1c-2.2,0-4.6,0.1-6.8,0.2l-0.5-0.4c-0.9-3.8-1.6-7.6-2.6-11.4h-13.2L113.9,96.2z
		 M127.4,75.1c0,0-2.6-11.1-3.9-17.4c-0.8,3.5-1.8,7-4.5,17.4H127.4z M164.9,96.5h-5.5c-0.9,0-1.8,0-8.2,0.2l-0.5-0.3
		c0.2-9.9,0.5-19.8,0.5-29.7c0-5.8-0.1-11.6-0.3-17.5l0.5-0.3c4.7,0,15.9-0.2,18.8-0.2c6.9,0,14.3,0.7,17.8,7.2c0.8,1.5,1.8,4,1.8,8
		c0,1.8-0.1,6.9-3.6,11.2c-4.8,6-12.9,6.1-19.9,6.1h-1.1c0,0-0.1,3.8-0.1,5.5c0,3.1,0.1,6.3,0.2,9.4L164.9,96.5z M165.2,71.2h1.1
		c3.8,0,8.6-0.9,8.6-7.1c0-4.3-2.8-5.8-6.5-5.8h-3.3V71.2z M213.6,82.4h-21l-0.3-0.3l0.4-9.5l0.4-0.5c2.3,0,8.1,0.1,12.1,0.1
		c3,0,5.9,0,9-0.1l0.3,0.4c-0.2,2.5-0.3,6.3-0.5,9.4L213.6,82.4z M220.8,83.5c3.9,3.8,10.1,4,11.6,4c4.4,0,6.4-2.2,6.4-4.3
		c0-2.8-2.6-4-4.7-4.8l-3.4-1.4c-10.3-4.1-10.9-10.5-10.9-14.4c0-6.2,3-14.9,18-14.9c2,0,7,0.1,12.7,2.7l0.3,0.4
		c-0.3,3.2-0.4,7-0.6,10.5l-0.6,0.3c-1.5-1.2-4.9-4.1-10.5-4.1c-3.5,0-5.1,2.2-5.1,4.1c0,2.4,2,3.4,4.5,4.5l4.7,2
		c7.7,3.2,10.1,7.8,10.1,13.6c0,3.8-1.6,8.4-4.8,11.3c-4.2,3.8-9.1,4.7-15.3,4.7c-1.6,0-8.2-0.1-12.8-2.2l-0.5-0.7
		c0.3-3.6,0.5-7.4,0.5-10.9L220.8,83.5z"/>
	<path class="st4" d="M97.7,49.3l1-3.2c0.2-0.6-0.3-1.3-0.9-1.3c-7.8-0.1-13.9-2.3-18.2-6.4c-4.5-4.5-6-10.3-6.4-13.7
		c-0.1-0.5-0.5-0.8-1-0.8h-3.2c-0.6,0-1,0.5-1,1.1c0.5,4,2.1,11.3,7.9,17c5.1,5,12,7.7,20.8,7.9C97.1,50,97.5,49.7,97.7,49.3z"/>
	<path class="st5" d="M91.6,61.3c-32.1-1.8-35.7-28.8-36.1-35.9c0-0.5-0.5-0.9-1-0.9h-5.2c-0.6,0-1,0.5-1,1
		c0.5,8.3,4.9,40.1,41.5,42.9c0.5,0,0.9-0.3,1-0.7l1.6-5.1C92.7,62,92.3,61.4,91.6,61.3z"/>
	<path class="st2" d="M85.6,80.8c-47.8-6.2-49.5-45.7-49.2-55.3c0-0.6-0.4-1-1-1h-7.3c-0.5,0-1,0.4-1,0.9C27,32.7,27.9,52,40.9,68
		c9.7,11.9,23.9,19.2,42.2,21.8c0.5,0.1,0.9-0.2,1.1-0.7l2.2-7.1C86.6,81.5,86.2,80.9,85.6,80.8z"/>
	<g>
		<path class="st0" d="M22.6,61.1v28.2c0,3.7,3,6.7,6.7,6.7h34.5c1,0,1.5-1.3,0.7-1.9c0,0-11.5-1.2-24-11.6
			c-11.9-10-16.2-22.3-16.2-22.3C23.6,59.7,22.6,60.2,22.6,61.1z"/>
	</g>
	<g>
		<path class="st6" d="M254.7,54.1h-0.5l0,0c0-0.3,0-1.1,0-1.4v-1h-0.2c-0.2,0-0.3,0-0.5,0l0,0c0-0.1,0-0.2,0-0.3v-0.1l0,0h2l0,0
			c0,0.2,0,0.2,0,0.4l0,0h-0.7v1C254.7,53.2,254.7,53.6,254.7,54.1L254.7,54.1z M257.2,53.5c0.2-0.9,0.4-1.5,0.6-2.2l0,0h0.8l0,0
			c0,0,0,1.6,0.1,2.7l0,0c-0.2,0-0.3,0-0.5,0l0,0c0-0.4,0-2.4,0-2.4l-0.7,2.4l0,0h-0.2c-0.1,0-0.2,0-0.4,0l0,0
			c-0.2-0.6-0.4-1.5-0.6-2.4c0,1.7,0,2,0,2.4l0,0c-0.2,0-0.3,0-0.5,0l0-0.1c0.1-0.8,0.1-1.1,0.1-2.7l0,0h0.8l0,0
			C256.7,51.8,256.9,52.6,257.2,53.5z"/>
	</g>
	<g>
		<path class="st6" d="M305.4,57.9c-0.9,0-1.5,0-2.4,0.1l-0.1-0.1c-0.4-1.6-0.8-2.7-1.2-4.3c-0.9,0-1.7,0-2.5,0c-0.8,0-1.7,0-2.5,0
			c-0.5,1.5-0.8,2.6-1.2,4.2l-0.1,0.1c-0.8,0-1.3,0-2.1,0.1l-0.1-0.1c2.3-6.5,4.2-12.1,4.6-13.6l0.1-0.5l0.2-0.1
			c1.1,0,1.8,0,2.9-0.1l0.1,0.1l0.1,0.3c1.5,5.1,2.7,8.7,4.3,13.8L305.4,57.9z M299.2,45l-2.1,6.9c0.1,0,1.4,0,2,0
			c0.7,0,1.8,0,2.1,0L299.2,45z"/>
		<path class="st6" d="M313.6,57.8l0-0.7c-0.6,0.5-1.4,1-2.9,1c-0.8,0-1.8-0.2-2.7-0.9c-1.5-1.2-1.9-3-1.9-4.3
			c0-2.7,1.4-5.8,6.3-5.8c0.4,0,0.8,0,1.2,0v-0.6c0-1.6-0.1-2.8-0.2-4.3l0.1-0.1c0.8-0.1,1.4-0.3,2.2-0.4l0.1,0.1
			c-0.2,3.6-0.2,6.2-0.2,9.8c0,2.3,0,3.9,0.2,6.2l-0.1,0.1c-0.8,0-1.3,0-2.1,0.1L313.6,57.8z M313.7,51.7c0-1,0-2.3,0-2.9
			c-0.4,0-0.7-0.1-1-0.1c-3.7,0-4.1,2.8-4.1,4.1c0,2.6,1.5,3.4,2.9,3.4c1.1,0,1.8-0.5,2.2-0.9c0-0.6,0-2,0-3V51.7z"/>
		<path class="st6" d="M320.5,57.8c-0.5-1.9-1-3.3-1.6-5.2c-0.6-1.9-1-3.2-1.7-5.1l0.1-0.2c0.8-0.1,1.4-0.1,2.2-0.2l0.2,0.1
			c0.9,3.3,1.5,5.7,2.4,9c0.3-1.1,0.5-1.9,0.8-3c0.7-2.2,1.1-3.7,1.6-5.9l0.1-0.1h1c0.3,0,0.6,0,0.9,0l0.1,0.1
			c-1.4,3.8-2.2,6.5-3.4,10.4l-0.1,0.1c-1,0-1.6,0-2.6,0.1L320.5,57.8z"/>
		<path class="st6" d="M335.9,57.9c-0.8,0-1.3,0-2.1,0.1l-0.1-0.1v-0.7c-0.5,0.5-1.5,1-2.7,1c-2.1,0-3.6-1.2-3.6-3.4
			c0-3.3,3.7-3.7,5.9-4l0.3,0c0-0.8,0-2-1.9-2c-1.5,0-2.5,0.5-3.1,0.8l-0.2-0.1c0.1-1,0.1-1.2,0.1-1.5l0.1-0.1
			c1.1-0.4,2.5-0.7,3.5-0.7c1.5,0,3.6,0.5,3.6,3.2v3.4c0,1.5,0,2.6,0.1,4.1L335.9,57.9z M333.8,52.2l-0.2,0c-2.2,0.3-4,0.7-4,2.3
			c0,0.5,0.2,2,1.9,2c0.8,0,1.6-0.2,2.3-0.9V52.2z"/>
		<path class="st6" d="M345.6,57.8c0-1.4,0-2.4,0-3.9V52c0-1.3-0.1-3.2-1.9-3.2c-1.3,0-2.3,0.8-2.8,1.1v1.3c0,2.4,0,4.1,0.2,6.4
			l-0.1,0.1c-0.8,0-1.3,0-2.1,0.1l-0.1-0.1c0-1.4,0.1-2.3,0.1-3.7c0-2.3-0.1-4-0.2-6.4l0.1-0.1c0.8-0.1,1.4-0.2,2.2-0.4l0.1,0.2
			c0,0.4,0,1,0,1c0.7-0.4,1.9-1.3,3.5-1.3c1.9,0,2.7,1,3,2c0.1,0.5,0.2,1.5,0.2,2.2v2.4c0,1.5,0,2.6,0.1,4.1l-0.1,0.1
			c-0.8,0-1.3,0-2,0.1L345.6,57.8z"/>
		<path class="st6" d="M358,57.4c-0.6,0.3-1.4,0.7-2.8,0.7c-3.4,0-5.1-2.4-5.1-5.5c0-2.8,1.7-5.6,5.1-5.6c0.5,0,1.5,0,2.8,0.7
			l0.1,0.1c-0.1,0.6-0.1,1-0.1,1.6l-0.2,0.1c-1-0.7-1.8-0.8-2.2-0.8c-2.4,0-3.2,2.1-3.2,3.9c0,2.9,1.7,3.8,3.2,3.8
			c1.3,0,2.1-0.6,2.6-1l0.2,0.1c-0.1,0.6-0.1,1.1-0.2,1.8L358,57.4z"/>
		<path class="st6" d="M360,57.8c0.1-1.6,0.1-2.7,0.1-4.3c0-3,0-4.3-0.2-5.8l0.1-0.1c0.8-0.1,1.4-0.2,2.2-0.4l0.2,0.1
			c-0.1,1.8-0.1,3-0.1,4.8c0,2.1,0,3.7,0.1,5.7l-0.1,0.1c-0.8,0-1.4,0-2.2,0.1L360,57.8z M359.9,44.4c0-0.3,0-0.6,0-0.8
			c0-0.4,0-0.7,0-1.1l0.1-0.1c0.9-0.1,1.4-0.1,2.3-0.2l0.1,0.1c0,0.3,0,0.6,0,0.9c0,0.3,0,0.7,0,1l-0.1,0.1c-0.8,0-1.4,0.1-2.3,0.2
			L359.9,44.4z"/>
		<path class="st6" d="M372,57.8c0-1.4,0-2.4,0-3.9V52c0-1.3-0.1-3.2-1.9-3.2c-1.3,0-2.3,0.8-2.8,1.1v1.3c0,2.4,0,4.1,0.2,6.4
			l-0.1,0.1c-0.8,0-1.3,0-2.1,0.1l-0.1-0.1c0-1.4,0.1-2.3,0.1-3.7c0-2.3-0.1-4-0.2-6.4l0.1-0.1c0.8-0.1,1.4-0.2,2.2-0.4l0.1,0.2
			c0,0.4,0,1,0,1c0.7-0.4,1.9-1.3,3.5-1.3c1.9,0,2.7,1,3,2c0.1,0.5,0.2,1.5,0.2,2.2v2.4c0,1.5,0,2.6,0.1,4.1l-0.1,0.1
			c-0.8,0-1.3,0-2,0.1L372,57.8z"/>
		<path class="st6" d="M377.2,56.2c0.5-0.8,0.9-1.3,1.4-2.1c-1.5-0.6-2-2-2-3.1c0-1.1,0.4-1.9,0.8-2.3c1-1.3,2.6-1.4,3.8-1.4
			c0.4,0,1,0,1.7,0c2,0,2.4,0,3.1,0l0.1,0.1c0,0.5-0.1,0.8-0.1,1.3l-0.1,0.1l-1.7-0.1c0.4,0.3,1,1.1,1,2.3c0,1.9-1.4,3.5-4,3.5
			c-0.3,0-0.6,0-0.9-0.1l-0.6,0.9c2.4,0.7,4,0.7,5,1.6c1.1,0.9,1.1,2,1.1,2.3c0,1.8-1.4,3.7-4.7,3.7c-3.1,0-4.6-1.4-4.6-3.2
			c0-1.5,1-2.4,1.8-3c-0.3-0.1-0.6-0.3-1-0.4L377.2,56.2z M379.6,57.4c-0.4,0.5-1.2,1.1-1.2,2.2c0,1,0.8,2.1,2.7,2.1
			c1.7,0,2.5-0.9,2.5-1.9c0-1.3-1.3-1.7-2.2-1.9L379.6,57.4z M380.9,48.6c-1.4,0-2.2,1.1-2.2,2.3c0,0.6,0.3,2.3,2.2,2.3
			c2,0,2.1-1.8,2.1-2.3C382.9,49.8,382.3,48.6,380.9,48.6z"/>
		<path class="st6" d="M303.2,78.8c-3.1,0-5.3,0-8.5,0.1l-0.1-0.1c0.1-2.4,0.1-4.1,0.1-6.5v-1c0-2.5,0-4.2-0.1-6.7l0.1-0.1
			c3.2,0,5.9-0.1,8.6-0.1l0.1,0.1c-0.1,0.6-0.1,1-0.1,1.6l-0.1,0.1c-2.2-0.1-3.8-0.1-6.1-0.1c0,1.2,0,2,0,3.2v1.1h1.8
			c1.4,0,2.5,0,3.9-0.1l0.1,0.1c-0.1,0.6-0.1,1-0.1,1.6l-0.1,0.1c-1.8,0-3-0.1-4.7-0.1h-0.9c0,0.9,0,1.7,0,2.5c0,0.8,0,1.9,0,2.3
			h0.9c2,0,3.5,0,5.5-0.1l0.1,0.1c0,0.6-0.1,1-0.1,1.5L303.2,78.8z"/>
		<path class="st6" d="M305.5,78.8c0.1-2.6,0.1-4.4,0.1-6.9c0-1.9,0-3.1,0-5c0-1.4-0.1-2.3-0.2-3.7l0.1-0.1c0.8-0.1,1.4-0.2,2.2-0.4
			l0.1,0.1c-0.1,2.3-0.1,5.4-0.1,8c0,2.8,0,5.1,0.2,7.9l-0.1,0.1c-0.8,0-1.3,0-2.1,0.1L305.5,78.8z"/>
		<path class="st6" d="M318.9,78.3c-0.7,0.3-1.7,0.8-3.2,0.8c-3.6,0-5.5-2.1-5.5-5.5c0-4.3,2.9-5.6,4.9-5.6c0.3,0,1.5,0,2.6,0.7
			c1.7,1.1,1.9,3.2,1.9,4.5v0.5l-0.1,0.1c-0.8,0-2.5,0-3.8,0c-1.1,0-2.1,0-3.2,0c0,3,2,3.6,3.3,3.6c1.6,0,2.6-0.6,3.3-1.2l0.2,0.1
			c-0.1,0.7-0.1,1.2-0.2,1.8L318.9,78.3z M314.4,72.3c1.1,0,2.4,0,3.1,0c0-1.3-0.7-2.8-2.4-2.8c-1.6,0-2.6,1.4-2.7,2.8H314.4z"/>
		<path class="st6" d="M329.1,78.4c-0.6,0.3-1.4,0.7-2.8,0.7c-3.4,0-5.1-2.4-5.1-5.5c0-2.8,1.7-5.6,5.1-5.6c0.5,0,1.5,0,2.8,0.7
			l0.1,0.1c-0.1,0.6-0.1,1-0.1,1.6l-0.2,0.1c-1-0.7-1.8-0.8-2.2-0.8c-2.4,0-3.2,2.1-3.2,3.9c0,2.9,1.7,3.8,3.2,3.8
			c1.3,0,2.1-0.6,2.6-1l0.2,0.1c-0.1,0.6-0.1,1.1-0.2,1.8L329.1,78.4z"/>
		<path class="st6" d="M335.6,78.8c-0.4,0.1-0.8,0.2-1.5,0.2c-2.4,0-2.8-1.2-2.8-3c0-0.7,0-2.7,0.1-6c-0.4,0-0.9,0-1.5,0.1l-0.1-0.1
			c0-0.5,0-0.9,0-1.5l0.1-0.1c0.1,0,0.5,0,0.7,0c0.2,0,0.5,0,0.7,0c0-0.9,0-1.5-0.1-2.5l0.1-0.1c0.8-0.2,1.3-0.3,2.1-0.6l0.1,0.1
			c-0.1,1.1-0.1,2-0.1,3.1c0.8,0,1.7-0.1,2.3-0.1l0.1,0.1c0,0.5-0.1,0.9-0.1,1.4l-0.1,0.1c-0.8,0-1.4,0-2.2,0c0,0,0,4,0,4.4
			c0,2.5,0,3.1,1.2,3.1c0.4,0,0.9-0.1,1-0.2l0.1,0.1c-0.1,0.5-0.1,0.9-0.1,1.4L335.6,78.8z"/>
		<path class="st6" d="M339.8,78.8c-0.8,0-1.4,0-2.2,0.1l-0.1-0.1v-0.9c0-0.3,0-3.2,0-4c0-1.5,0-3.7-0.2-5.3l0.1-0.1
			c0.8-0.2,1.3-0.3,2.1-0.4l0.1,0.1l-0.1,1.7c0.3-0.7,0.8-2,2.5-2c0.3,0,0.5,0,0.6,0.1l0.1,0.1c-0.2,0.8-0.3,1.3-0.4,2.1l-0.1,0.1
			c-0.4-0.2-0.6-0.2-0.8-0.2c-0.5,0-1.7,0.3-1.7,2.3v1.5c0,1.7,0,2.9,0.1,4.6L339.8,78.8z"/>
		<path class="st6" d="M348.9,79.1c-2.1,0-5.1-1-5.1-5.6c0-4.6,3.1-5.5,5.2-5.5c2.1,0,4.9,0.9,4.9,5.6
			C353.9,78.1,351,79.1,348.9,79.1z M349,69.5c-2.1,0-2.9,1.7-2.9,4c0,3.1,1.3,4,2.8,4c2,0,2.9-1.5,2.9-3.9
			C351.7,72.3,351.5,69.5,349,69.5z"/>
		<path class="st6" d="M369.5,78.8c0-2.2,0.1-3.6,0.1-6.1c0-1.2-0.2-2.9-1.9-2.9c-1.2,0-2.2,0.7-2.7,1c0,0.3,0.1,1.8,0.1,2.1v2.6
			c0,1.2,0.1,2,0.1,3.2l-0.1,0.1c-0.8,0-1.3,0-2.1,0.1l-0.1-0.1c0.1-1.4,0.1-2.4,0.1-3.6v-2.4c0-1.2-0.2-3-1.9-3
			c-0.4,0-1.4,0.1-2.5,1v1.1c0,0.5,0,2,0,3c0,1.2,0,2.4,0.1,3.8l-0.1,0.1c-0.8,0-1.3,0-2.1,0.1l-0.1-0.1c0-1.5,0.1-2.6,0.1-4.1
			c0-3.3,0-4.1-0.2-6l0.1-0.1c0.8-0.1,1.4-0.2,2.2-0.4l0.1,0.1l0,1c0.6-0.4,1.8-1.3,3.3-1.3c1,0,2,0.2,2.7,1.5
			c0.7-0.5,2-1.5,3.8-1.5c3.2,0,3.3,2.8,3.3,3.8c0,0.4,0,1.8,0,3.1c0,1.4,0,2.4,0.1,3.7l-0.1,0.1c-0.8,0-1.3,0-2.1,0.1L369.5,78.8z"
			/>
		<path class="st6" d="M382.4,78.8c-0.8,0-1.3,0-2.1,0.1l-0.1-0.1V78c-0.5,0.5-1.5,1-2.7,1c-2.1,0-3.6-1.2-3.6-3.4
			c0-3.3,3.7-3.7,5.9-4l0.3,0c0-0.8,0-2-1.9-2c-1.5,0-2.5,0.5-3.1,0.8l-0.2-0.1c0.1-1,0.1-1.2,0.1-1.5l0.1-0.1
			c1.1-0.4,2.5-0.7,3.5-0.7c1.5,0,3.6,0.5,3.6,3.2v3.4c0,1.5,0,2.6,0.1,4.1L382.4,78.8z M380.3,73.1l-0.2,0c-2.2,0.3-4,0.7-4,2.3
			c0,0.5,0.2,2,1.9,2c0.8,0,1.6-0.2,2.3-0.9V73.1z"/>
		<path class="st6" d="M385.3,77.1c0.5-0.8,0.9-1.3,1.4-2.1c-1.5-0.6-2-2-2-3.1c0-1.1,0.4-1.9,0.8-2.3c1-1.3,2.6-1.4,3.8-1.4
			c0.4,0,1,0,1.7,0c2,0,2.4,0,3.1,0l0.1,0.1c0,0.5-0.1,0.8-0.1,1.3l-0.1,0.1l-1.7-0.1c0.4,0.3,1,1.1,1,2.3c0,1.9-1.4,3.5-4,3.5
			c-0.3,0-0.6,0-0.9-0.1l-0.6,0.9c2.4,0.7,4,0.7,5,1.6c1.1,0.9,1.1,2,1.1,2.3c0,1.8-1.4,3.7-4.7,3.7c-3.1,0-4.6-1.4-4.6-3.2
			c0-1.5,1-2.4,1.8-3c-0.3-0.1-0.6-0.3-1-0.4L385.3,77.1z M387.7,78.3c-0.4,0.5-1.2,1.1-1.2,2.2c0,1,0.8,2.1,2.7,2.1
			c1.7,0,2.5-0.9,2.5-1.9c0-1.3-1.3-1.7-2.2-1.9L387.7,78.3z M389,69.6c-1.4,0-2.2,1.1-2.2,2.3c0,0.6,0.3,2.3,2.2,2.3
			c2,0,2.1-1.8,2.1-2.3C391.1,70.7,390.5,69.6,389,69.6z"/>
		<path class="st6" d="M402.7,78.8c0-1.4,0-2.4,0-3.9V73c0-1.3-0.1-3.2-1.9-3.2c-1.3,0-2.3,0.8-2.8,1.1v1.3c0,2.4,0,4.1,0.2,6.4
			l-0.1,0.1c-0.8,0-1.3,0-2.1,0.1l-0.1-0.1c0-1.4,0.1-2.3,0.1-3.7c0-2.3-0.1-4-0.2-6.4l0.1-0.1c0.8-0.1,1.4-0.2,2.2-0.4l0.1,0.2
			c0,0.4,0,1,0,1c0.7-0.4,1.9-1.3,3.5-1.3c1.9,0,2.7,1,3,2c0.1,0.5,0.2,1.5,0.2,2.2v2.4c0,1.5,0,2.6,0.1,4.1l-0.1,0.1
			c-0.8,0-1.3,0-2,0.1L402.7,78.8z"/>
		<path class="st6" d="M416,78.3c-0.7,0.3-1.7,0.8-3.2,0.8c-3.6,0-5.5-2.1-5.5-5.5c0-4.3,2.9-5.6,4.9-5.6c0.3,0,1.5,0,2.6,0.7
			c1.7,1.1,1.9,3.2,1.9,4.5v0.5l-0.1,0.1c-0.8,0-2.5,0-3.8,0c-1.1,0-2.1,0-3.2,0c0,3,2,3.6,3.3,3.6c1.6,0,2.6-0.6,3.3-1.2l0.2,0.1
			c-0.1,0.7-0.1,1.2-0.2,1.8L416,78.3z M411.5,72.3c1.1,0,2.4,0,3.1,0c0-1.3-0.7-2.8-2.4-2.8c-1.6,0-2.6,1.4-2.7,2.8H411.5z"/>
		<path class="st6" d="M423.4,78.8c-0.4,0.1-0.8,0.2-1.5,0.2c-2.4,0-2.8-1.2-2.8-3c0-0.7,0-2.7,0.1-6c-0.4,0-0.9,0-1.5,0.1l-0.1-0.1
			c0-0.5,0-0.9,0-1.5l0.1-0.1c0.1,0,0.5,0,0.7,0c0.2,0,0.5,0,0.7,0c0-0.9,0-1.5-0.1-2.5l0.1-0.1c0.8-0.2,1.3-0.3,2.1-0.6l0.1,0.1
			c-0.1,1.1-0.1,2-0.1,3.1c0.8,0,1.7-0.1,2.3-0.1l0.1,0.1c0,0.5-0.1,0.9-0.1,1.4l-0.1,0.1c-0.8,0-1.4,0-2.2,0c0,0,0,4,0,4.4
			c0,2.5,0,3.1,1.2,3.1c0.4,0,0.9-0.1,1-0.2l0.1,0.1c-0.1,0.5-0.1,0.9-0.1,1.4L423.4,78.8z"/>
		<path class="st6" d="M425.2,78.8c0.1-1.6,0.1-2.7,0.1-4.3c0-3,0-4.3-0.2-5.8l0.1-0.1c0.8-0.1,1.4-0.2,2.2-0.4l0.2,0.1
			c-0.1,1.8-0.1,3-0.1,4.8c0,2.1,0,3.7,0.1,5.7l-0.1,0.1c-0.8,0-1.4,0-2.2,0.1L425.2,78.8z M425.2,65.3c0-0.3,0-0.6,0-0.8
			c0-0.4,0-0.7,0-1.1l0.1-0.1c0.9-0.1,1.4-0.1,2.3-0.2l0.1,0.1c0,0.3,0,0.6,0,0.9c0,0.3,0,0.7,0,1l-0.1,0.1c-0.8,0-1.4,0.1-2.3,0.2
			L425.2,65.3z"/>
		<path class="st6" d="M437.8,78.4c-0.6,0.3-1.4,0.7-2.8,0.7c-3.4,0-5.1-2.4-5.1-5.5c0-2.8,1.7-5.6,5.1-5.6c0.5,0,1.5,0,2.8,0.7
			l0.1,0.1c-0.1,0.6-0.1,1-0.1,1.6l-0.2,0.1c-1-0.7-1.8-0.8-2.2-0.8c-2.4,0-3.2,2.1-3.2,3.9c0,2.9,1.7,3.8,3.2,3.8
			c1.3,0,2.1-0.6,2.6-1l0.2,0.1c-0.1,0.6-0.1,1.1-0.2,1.8L437.8,78.4z"/>
		<path class="st6" d="M439.1,78.3c0.1-0.6,0.1-1.1,0.1-1.7l0.2-0.1c0.6,0.4,1.5,1,2.9,1c1.4,0,2.2-0.7,2.2-1.5c0-1-1.1-1.3-2-1.6
			l-0.9-0.3c-0.9-0.3-2.6-0.9-2.6-3c0-1.6,1.3-3.1,4.1-3.1c1.4,0,2.4,0.4,2.9,0.6l0.1,0.1c-0.1,0.6-0.1,1-0.1,1.6l-0.2,0.1
			c-0.9-0.6-1.7-0.8-2.6-0.8c-1.2,0-2,0.5-2,1.3c0,1,1.4,1.3,2.1,1.5l0.7,0.2c0.7,0.2,2.7,0.9,2.7,3c0,2.1-1.8,3.4-4.3,3.4
			c-1.7,0-2.5-0.3-3.2-0.6L439.1,78.3z"/>
		<path class="st6" d="M297,99.8c-0.9,0-1.5,0-2.4,0.1l-0.1-0.1c0.1-1.3,0.1-8,0.1-8.7c0-2,0-3.4-0.1-5.4l0.1-0.1h1.2
			c0.9,0,6.3,0,7-0.1l0.1,0.1c-0.1,0.6-0.1,1-0.1,1.6l-0.1,0.1c-2.1-0.1-3.6-0.1-5.7-0.1c0,1.7,0,2.9,0,4.6c1.9,0,3.2,0,5.1-0.1
			l0.1,0.1c0,0.6-0.1,1-0.1,1.6l-0.1,0.1c-1.8-0.1-3.1-0.1-4.8-0.1c0,0.2,0,0.7,0,1.1c0,1.9,0,3.2,0.1,5.1L297,99.8z"/>
		<path class="st6" d="M306.2,99.8c-0.8,0-1.4,0-2.2,0.1l-0.1-0.1v-0.9c0-0.3,0-3.2,0-4c0-1.5,0-3.7-0.2-5.3l0.1-0.1
			c0.8-0.2,1.3-0.3,2.1-0.4l0.1,0.1l-0.1,1.7c0.3-0.7,0.8-2,2.5-2c0.3,0,0.5,0,0.6,0.1l0.1,0.1c-0.2,0.8-0.3,1.3-0.4,2.1l-0.1,0.1
			c-0.4-0.2-0.6-0.2-0.8-0.2c-0.5,0-1.7,0.3-1.7,2.3V95c0,1.7,0,2.9,0.1,4.6L306.2,99.8z"/>
		<path class="st6" d="M315.2,100c-2.1,0-5.1-1-5.1-5.6c0-4.6,3.1-5.5,5.2-5.5c2.1,0,4.9,0.9,4.9,5.6C320.3,99,317.3,100,315.2,100z
			 M315.3,90.5c-2.1,0-2.9,1.7-2.9,4c0,3.1,1.3,4,2.8,4c2,0,2.9-1.5,2.9-3.9C318.1,93.2,317.8,90.5,315.3,90.5z"/>
		<path class="st6" d="M329.5,99.7c0-1.4,0-2.4,0-3.9v-1.9c0-1.3-0.1-3.2-1.9-3.2c-1.3,0-2.3,0.8-2.8,1.1v1.3c0,2.4,0,4.1,0.2,6.4
			l-0.1,0.1c-0.8,0-1.3,0-2.1,0.1l-0.1-0.1c0-1.4,0.1-2.3,0.1-3.7c0-2.3-0.1-4-0.2-6.4l0.1-0.1c0.8-0.1,1.4-0.2,2.2-0.4l0.1,0.2
			c0,0.4,0,1,0,1c0.7-0.4,1.9-1.3,3.5-1.3c1.9,0,2.7,1,3,2c0.1,0.5,0.2,1.5,0.2,2.2v2.4c0,1.5,0,2.6,0.1,4.1l-0.1,0.1
			c-0.8,0-1.3,0-2,0.1L329.5,99.7z"/>
		<path class="st6" d="M339,99.7c-0.4,0.1-0.8,0.2-1.5,0.2c-2.4,0-2.8-1.2-2.8-3c0-0.7,0-2.7,0.1-6c-0.4,0-0.9,0-1.5,0.1l-0.1-0.1
			c0-0.5,0-0.9,0-1.5l0.1-0.1c0.1,0,0.5,0,0.7,0c0.2,0,0.5,0,0.7,0c0-0.9,0-1.5-0.1-2.5l0.1-0.1c0.8-0.2,1.3-0.3,2.1-0.6l0.1,0.1
			c-0.1,1.1-0.1,2-0.1,3.1c0.8,0,1.7-0.1,2.3-0.1l0.1,0.1c0,0.5-0.1,0.9-0.1,1.4l-0.1,0.1c-0.8,0-1.4,0-2.2,0c0,0,0,4,0,4.4
			c0,2.5,0,3.1,1.2,3.1c0.4,0,0.9-0.1,1-0.2l0.1,0.1c-0.1,0.5-0.1,0.9-0.1,1.4L339,99.7z"/>
		<path class="st6" d="M340.9,99.7c0.1-1.6,0.1-2.7,0.1-4.3c0-3,0-4.3-0.2-5.8l0.1-0.1c0.8-0.1,1.4-0.2,2.2-0.4l0.2,0.1
			c-0.1,1.8-0.1,3-0.1,4.8c0,2.1,0,3.7,0.1,5.7l-0.1,0.1c-0.8,0-1.4,0-2.2,0.1L340.9,99.7z M340.8,86.3c0-0.3,0-0.5,0-0.8
			c0-0.4,0-0.7,0-1.1l0.1-0.1c0.9-0.1,1.4-0.1,2.3-0.2l0.1,0.1c0,0.3,0,0.6,0,0.9c0,0.3,0,0.7,0,1l-0.1,0.1c-0.8,0-1.4,0.1-2.3,0.2
			L340.8,86.3z"/>
		<path class="st6" d="M354.2,99.3c-0.7,0.3-1.7,0.8-3.2,0.8c-3.6,0-5.5-2.1-5.5-5.5c0-4.3,2.9-5.6,4.9-5.6c0.3,0,1.5,0,2.6,0.7
			c1.7,1.1,1.9,3.2,1.9,4.5v0.5l-0.1,0.1c-0.8,0-2.5,0-3.8,0c-1.1,0-2.1,0-3.2,0c0,3,2,3.6,3.3,3.6c1.6,0,2.6-0.6,3.3-1.2l0.2,0.1
			c-0.1,0.7-0.1,1.2-0.2,1.8L354.2,99.3z M349.8,93.2c1.1,0,2.4,0,3.1,0c0-1.3-0.7-2.8-2.4-2.8c-1.6,0-2.6,1.4-2.7,2.8H349.8z"/>
		<path class="st6" d="M359.4,99.8c-0.8,0-1.4,0-2.2,0.1l-0.1-0.1v-0.9c0-0.3,0-3.2,0-4c0-1.5,0-3.7-0.2-5.3l0.1-0.1
			c0.8-0.2,1.3-0.3,2.1-0.4l0.1,0.1l-0.1,1.7c0.3-0.7,0.8-2,2.5-2c0.3,0,0.5,0,0.6,0.1l0.1,0.1c-0.2,0.8-0.3,1.3-0.4,2.1l-0.1,0.1
			c-0.4-0.2-0.6-0.2-0.8-0.2c-0.5,0-1.7,0.3-1.7,2.3V95c0,1.7,0,2.9,0.1,4.6L359.4,99.8z"/>
		<path class="st6" d="M363.3,99.2c0.1-0.6,0.1-1.1,0.1-1.7l0.2-0.1c0.6,0.4,1.5,1,2.9,1c1.4,0,2.2-0.7,2.2-1.5c0-1-1.1-1.3-2-1.6
			l-0.9-0.3c-0.9-0.3-2.6-0.9-2.6-3c0-1.6,1.3-3.1,4.1-3.1c1.4,0,2.4,0.4,2.9,0.6l0.1,0.1c-0.1,0.6-0.1,1-0.1,1.6l-0.2,0.1
			c-0.9-0.6-1.7-0.8-2.6-0.8c-1.2,0-2,0.5-2,1.3c0,1,1.4,1.3,2.1,1.5l0.7,0.2c0.7,0.2,2.7,0.9,2.7,3c0,2.1-1.8,3.4-4.3,3.4
			c-1.7,0-2.5-0.3-3.2-0.6L363.3,99.2z"/>
	</g>
	<g>
		<rect x="273.9" y="41.9" class="st0" width="0.3" height="60.7"/>
	</g>
</g>
</svg>
